<?xml version="1.0" encoding="utf-8"?>
<svg version="1.1" xmlns:xlink="http://www.w3.org/1999/xlink" width="117px" height="88px" xmlns="http://www.w3.org/2000/svg">
  <g transform="matrix(1 0 0 1 -400 -1071 )">
    <path d="M 400 1071  L 517 1071  L 517 1159  L 400 1159  L 400 1071  " fill-rule="nonzero" fill="#cccccc" stroke="none" />
    <path d="M 406 1077  L 511 1077  L 511 1153  L 406 1153  L 406 1077  " fill-rule="nonzero" fill="#ffffff" stroke="none" />
    <path d="M 467.44 1097.4  C 463.744 1097.4  460.84 1094.496  460.84 1090.8  C 460.84 1087.104  463.744 1084.2  467.44 1084.2  C 471.136 1084.2  474.04 1087.104  474.04 1090.8  C 474.04 1094.496  471.136 1097.4  467.44 1097.4  " fill-rule="nonzero" fill="#cccccc" stroke="none" />
    <path d="M 408 1151  L 408 1111.4  L 433.25 1093.4  L 468.6 1118.50769230769  L 488.8 1104.2  L 509 1118.50769230769  L 509 1151  L 408 1151  " fill-rule="nonzero" fill="#169bd5" stroke="none" />
  </g>
</svg>