<?xml version="1.0" encoding="utf-8"?>
<svg version="1.1" xmlns:xlink="http://www.w3.org/1999/xlink" width="10px" height="862.647058823528px" preserveAspectRatio="xMidYMin meet" viewBox="1433 396  8 862.647058823528" xmlns="http://www.w3.org/2000/svg">
  <path d="M 2235 1295  A 2 2 0 0 0 2237 1293 L 2237 1258.64705882353  A 5 5 0 0 0 2232 1253.64705882353 L 1442 1253.64705882353  A 5 5 0 0 1 1437 1248.64705882353 L 1437 406  A 5 5 0 0 0 1432 401 L 1425.82352941176 401  A 3 3 0 0 0 1422.82352941176 398 A 3 3 0 0 0 1419.82352941176 401 L 1413 401  A 3 3 0 0 0 1410 398 A 3 3 0 0 0 1407 401 L 1362 401  " stroke-width="2" stroke="#0099cc" fill="none" />
</svg>